<svg xmlns="http://www.w3.org/2000/svg" xmlns:xlink="http://www.w3.org/1999/xlink" width="672" zoomAndPan="magnify" viewBox="0 0 504 215.999996" height="288" preserveAspectRatio="xMidYMid meet" version="1.0"><defs><g/><clipPath id="cdd620850c"><path d="M 192.34375 37.589844 L 314.714844 37.589844 L 314.714844 178.085938 L 192.34375 178.085938 Z M 192.34375 37.589844 " clip-rule="nonzero"/></clipPath></defs><g clip-path="url(#cdd620850c)"><path fill="#e45c08" d="M 192.351562 79.871094 L 192.351562 111.402344 L 204.777344 118.539062 L 268.601562 155.1875 L 253.527344 163.820312 L 204.777344 135.855469 L 192.351562 128.722656 L 192.351562 142.988281 L 253.527344 178.085938 L 265.949219 170.953125 L 274.785156 165.886719 L 281.023438 162.320312 L 284.140625 160.5625 L 287.207031 158.753906 L 293.445312 155.1875 L 308.519531 146.554688 L 314.339844 143.195312 L 314.703125 142.574219 L 314.703125 104.269531 L 302.28125 97.136719 L 238.457031 60.488281 L 253.527344 51.855469 L 302.28125 79.871094 L 314.703125 87.003906 L 314.703125 72.738281 L 253.527344 37.589844 L 241.105469 44.722656 L 232.269531 49.789062 L 226.035156 53.355469 L 222.96875 55.164062 L 219.847656 56.921875 L 213.609375 60.488281 L 198.539062 69.171875 L 192.71875 72.53125 L 192.351562 73.152344 Z M 302.28125 111.402344 L 296.097656 107.835938 L 289.027344 103.804688 L 232.269531 71.1875 L 232.269531 88.503906 L 265.949219 107.835938 L 274.785156 112.902344 L 287.207031 120.035156 L 287.207031 144.488281 L 296.097656 139.421875 L 302.28125 135.855469 Z M 204.777344 104.269531 L 210.960938 107.835938 L 215.171875 110.214844 L 274.785156 144.488281 L 274.785156 127.171875 L 241.105469 107.835938 L 232.269531 102.773438 L 219.847656 95.636719 L 219.847656 71.1875 L 210.960938 76.304688 L 204.777344 79.871094 Z M 204.777344 104.269531 " fill-opacity="1" fill-rule="evenodd"/></g><g fill="#323b60" fill-opacity="1"><g transform="translate(9.918797, 144.208134)"><g><path d="M 55.902344 0 L 55.902344 -16.125 L 20.472656 -16.125 L 20.472656 -54.523438 L 55.902344 -54.523438 L 55.902344 -70.753906 L 2.757812 -70.753906 L 2.757812 0 Z M 55.902344 0 "/></g></g></g><g fill="#323b60" fill-opacity="1"><g transform="translate(67.943543, 144.208134)"><g><path d="M 55.902344 0 L 55.902344 -70.753906 L 38.1875 -70.753906 L 38.1875 -43.386719 L 20.472656 -43.386719 L 20.472656 -70.753906 L 2.757812 -70.753906 L 2.757812 0 L 20.472656 0 L 20.472656 -27.792969 L 38.1875 -27.792969 L 38.1875 0 Z M 55.902344 0 "/></g></g></g><g fill="#e45c08" fill-opacity="1"><g transform="translate(126.602383, 144.208134)"><g><path d="M 55.902344 0 L 55.902344 -70.753906 L 2.757812 -70.753906 L 2.757812 0 L 20.472656 0 L 20.472656 -19.730469 L 38.1875 -19.730469 L 38.1875 0 Z M 38.1875 -35.855469 L 20.472656 -35.855469 L 20.472656 -54.523438 L 38.1875 -54.523438 Z M 38.1875 -35.855469 "/></g></g></g><g fill="#323b60" fill-opacity="1"><g transform="translate(185.254723, 144.208134)"><g/></g></g><g fill="#e45c08" fill-opacity="1"><g transform="translate(320.471031, 144.208134)"><g><path d="M 54.738281 -54.523438 L 54.738281 -70.753906 L 1.589844 -70.753906 L 1.589844 -54.523438 L 19.414062 -54.523438 L 19.414062 0 L 37.128906 0 L 37.128906 -54.523438 Z M 54.738281 -54.523438 "/></g></g></g><g fill="#323b60" fill-opacity="1"><g transform="translate(376.79134, 144.208134)"><g><path d="M 55.691406 0 L 55.691406 -16.125 L 20.472656 -16.125 L 20.472656 -27.792969 L 55.691406 -27.792969 L 55.691406 -43.386719 L 20.472656 -43.386719 L 20.472656 -54.523438 L 55.691406 -54.523438 L 55.691406 -70.753906 L 2.757812 -70.753906 L 2.757812 0 Z M 55.691406 0 "/></g></g></g><g fill="#323b60" fill-opacity="1"><g transform="translate(435.240399, 144.208134)"><g><path d="M 54.738281 0 L 54.738281 -70.753906 L 1.589844 -70.753906 L 1.589844 -54.523438 L 5.09375 -54.523438 L 5.09375 0 L 19.304688 0 L 19.304688 -54.523438 L 37.023438 -54.523438 L 37.023438 0 Z M 54.738281 0 "/></g></g></g></svg>